<svg width="18" height="10" viewBox="0 0 18 10" fill="none" xmlns="http://www.w3.org/2000/svg">
<path fill-rule="evenodd" clip-rule="evenodd" d="M10.4186 0.429602C10.7337 -0.0240283 11.3568 -0.136393 11.8104 0.178628L17.5704 4.17863C17.8395 4.36551 18 4.67236 18 5C18 5.32763 17.8395 5.63449 17.5704 5.82137L11.8104 9.82137C11.3568 10.1364 10.7337 10.024 10.4186 9.57039C10.1036 9.11676 10.216 8.49365 10.6696 8.17863L13.8068 6H1C0.447715 6 0 5.55228 0 5C0 4.44771 0.447715 4 1 4H13.8068L10.6696 1.82137C10.216 1.50635 10.1036 0.883232 10.4186 0.429602Z" fill="#332200"/>
</svg>
